# xmcd CD database file
#
# Track frame offsets:
#	150
#	17360
#	32030
#
# Disc length: 713 seconds
#
# Revision: 0
# Processed by: cddbd v1.5.1PL2 Copyright (c) Steve Scherf et al.
# Submitted via: CDex 1.51
#
DISCID=1502c703
DTITLE=Vogus Image - 手
DYEAR=2003
DGENRE=Visual_Rock
TTITLE0=手
TTITLE1=寒空
TTITLE2=Life time
EXTD=YEAR: 2003
EXTT0=
EXTT1=
EXTT2=
PLAYORDER=
